<?xml version="1.0" encoding="UTF-8" standalone="no"?>
<!-- Created with Inkscape (http://www.inkscape.org/) -->

<svg
   width="254.71747mm"
   height="114.90599mm"
   viewBox="0 0 254.71747 114.90599"
   version="1.1"
   id="svg5"
   inkscape:version="1.1 (c68e22c387, 2021-05-23)"
   sodipodi:docname="logo.svg"
   xmlns:inkscape="http://www.inkscape.org/namespaces/inkscape"
   xmlns:sodipodi="http://sodipodi.sourceforge.net/DTD/sodipodi-0.dtd"
   xmlns="http://www.w3.org/2000/svg"
   xmlns:svg="http://www.w3.org/2000/svg">
  <sodipodi:namedview
     id="namedview7"
     pagecolor="#ffffff"
     bordercolor="#666666"
     borderopacity="1.0"
     inkscape:pageshadow="2"
     inkscape:pageopacity="0.0"
     inkscape:pagecheckerboard="0"
     inkscape:document-units="mm"
     showgrid="false"
     fit-margin-top="0"
     fit-margin-left="0"
     fit-margin-right="0"
     fit-margin-bottom="0"
     inkscape:zoom="0.61126326"
     inkscape:cx="203.67656"
     inkscape:cy="157.86979"
     inkscape:window-width="1920"
     inkscape:window-height="1057"
     inkscape:window-x="-8"
     inkscape:window-y="-8"
     inkscape:window-maximized="1"
     inkscape:current-layer="layer1" />
  <defs
     id="defs2" />
  <g
     inkscape:label="Layer 1"
     inkscape:groupmode="layer"
     id="layer1"
     transform="translate(19.40609,-65.719786)">
    <g
       id="g1219"
       transform="matrix(4.4422807,0,0,4.4422807,-244.69677,-386.93613)">
      <path
         style="fill:#a2d4e2;stroke-width:0.0846667"
         d="m 78.110112,127.71893 c 0.08149,-0.0213 0.214842,-0.0213 0.296333,0 0.08149,0.0213 0.01482,0.0387 -0.148166,0.0387 -0.162984,0 -0.229659,-0.0174 -0.148167,-0.0387 z m 5.291667,0.002 c 0.05821,-0.0235 0.153458,-0.0235 0.211667,0 0.05821,0.0235 0.01058,0.0427 -0.105834,0.0427 -0.116416,0 -0.164041,-0.0192 -0.105833,-0.0427 z m -7.958667,-0.0847 c 0.05821,-0.0235 0.153458,-0.0235 0.211667,0 0.05821,0.0235 0.01058,0.0427 -0.105834,0.0427 -0.116416,0 -0.164041,-0.0192 -0.105833,-0.0427 z m -2.201333,-0.0847 c 0.05821,-0.0235 0.153458,-0.0235 0.211666,0 0.05821,0.0235 0.01058,0.0427 -0.105833,0.0427 -0.116417,0 -0.164042,-0.0192 -0.105833,-0.0427 z m -1.518709,-0.0864 c 0.06112,-0.0245 0.134143,-0.0215 0.162278,0.007 0.02813,0.0281 -0.02187,0.0481 -0.111125,0.0445 -0.09863,-0.004 -0.118694,-0.0241 -0.05115,-0.0511 z m 16.37932,-0.17017 c 0.08238,-0.0215 0.196679,-0.0201 0.254001,0.003 0.05732,0.0232 -0.01008,0.0408 -0.149778,0.039 -0.1397,-0.002 -0.186601,-0.0207 -0.104223,-0.0422 z m 0.723348,-0.0838 c 0.06112,-0.0245 0.134144,-0.0215 0.162278,0.007 0.02813,0.0281 -0.02187,0.0481 -0.111125,0.0445 -0.09863,-0.004 -0.118694,-0.0241 -0.05115,-0.0512 z m 0.423333,-0.0847 c 0.06112,-0.0245 0.134144,-0.0215 0.162278,0.007 0.02813,0.0281 -0.02187,0.0481 -0.111125,0.0445 -0.09863,-0.004 -0.118694,-0.0241 -0.05115,-0.0512 z m 1.455208,-0.74649 c 0.15797,-0.16299 0.306268,-0.29634 0.329551,-0.29634 0.02328,0 -0.08691,0.13335 -0.244884,0.29634 -0.157969,0.16298 -0.306267,0.29633 -0.329551,0.29633 -0.02328,0 0.08692,-0.13335 0.244884,-0.29633 z m -22.870801,-0.4445 c -0.105314,-0.13429 -0.10232,-0.13729 0.03197,-0.032 0.08149,0.0639 0.148167,0.13058 0.148167,0.14817 0,0.0697 -0.06953,0.0248 -0.180134,-0.1162 z m -0.846667,-0.84667 c -0.105314,-0.13429 -0.102319,-0.13728 0.03197,-0.032 0.141034,0.11061 0.185884,0.18014 0.1162,0.18014 -0.01758,0 -0.08426,-0.0667 -0.148167,-0.14817 z m 24.564135,-0.10084 c 0,-0.0438 0.03766,-0.10294 0.0837,-0.13139 0.048,-0.0297 0.06219,0.004 0.03328,0.0797 -0.05629,0.14667 -0.116972,0.17351 -0.116972,0.0517 z m -5.588,-0.55533 c 0.157969,-0.16298 0.306267,-0.29633 0.32955,-0.29633 0.02328,0 -0.08691,0.13335 -0.244883,0.29633 -0.15797,0.16299 -0.306268,0.29634 -0.329551,0.29634 -0.02328,0 0.08691,-0.13335 0.244884,-0.29634 z m -20.500135,-1.2065 c -0.105314,-0.13428 -0.102319,-0.13728 0.03197,-0.032 0.08149,0.0639 0.148167,0.13058 0.148167,0.14816 0,0.0697 -0.06953,0.0248 -0.180134,-0.1162 z M 92.99028,123.004 c 0,-0.0176 0.06668,-0.0843 0.148166,-0.14817 0.134287,-0.10531 0.137281,-0.10232 0.03197,0.032 -0.110606,0.14103 -0.180133,0.18588 -0.180133,0.1162 z m -27.950802,-0.28554 c -0.105314,-0.13428 -0.10232,-0.13728 0.03197,-0.032 0.08149,0.0639 0.148166,0.13058 0.148166,0.14816 0,0.0697 -0.06953,0.0248 -0.180133,-0.1162 z m 28.458802,-0.3175 c 0.109368,-0.11641 0.2179,-0.21166 0.241184,-0.21166 0.02328,0 -0.04715,0.0952 -0.156518,0.21166 -0.109368,0.11642 -0.2179,0.21167 -0.241184,0.21167 -0.02328,0 0.04715,-0.0952 0.156518,-0.21167 z m -29.342328,-0.65616 -0.248674,-0.27517 0.275167,0.24867 c 0.256494,0.2318 0.314083,0.30166 0.248673,0.30166 -0.01457,0 -0.138396,-0.12382 -0.275166,-0.27516 z m 23.422345,-0.62089 c 0.0041,-0.0986 0.02412,-0.1187 0.05115,-0.0512 0.02446,0.0611 0.02145,0.13415 -0.0067,0.16228 -0.02813,0.0281 -0.04815,-0.0219 -0.04447,-0.11112 z m 7.401649,-0.20461 c 0.08429,-0.0931 0.172295,-0.16934 0.195579,-0.16934 0.02328,0 -0.02663,0.0762 -0.110912,0.16934 -0.08428,0.0931 -0.172295,0.16933 -0.195578,0.16933 -0.02328,0 0.02663,-0.0762 0.110911,-0.16933 z m -7.310299,-0.42334 c 0,-0.11641 0.01922,-0.16404 0.0427,-0.10583 0.02349,0.0582 0.02349,0.15346 0,0.21167 -0.02349,0.0582 -0.0427,0.0106 -0.0427,-0.10584 z m 7.691299,0.13737 c 0,-0.0176 0.06668,-0.0843 0.148167,-0.14817 0.134286,-0.10531 0.137281,-0.10232 0.03197,0.032 -0.110606,0.14103 -0.180134,0.18588 -0.180134,0.1162 z M 71.006998,119.0143 c -2.54e-4,-0.4191 0.01406,-0.60123 0.03182,-0.40472 0.01776,0.1965 0.01797,0.5394 5.08e-4,0.762 -0.0175,0.22259 -0.03203,0.0618 -0.03229,-0.35728 z m 28.910074,-0.35417 c 0.06112,-0.0245 0.134148,-0.0215 0.162278,0.007 0.0281,0.0281 -0.0219,0.0481 -0.111125,0.0445 -0.09863,-0.004 -0.118695,-0.0241 -0.05115,-0.0512 z m 0.423328,-0.0847 c 0.0611,-0.0245 0.13415,-0.0215 0.16228,0.007 0.0281,0.0281 -0.0219,0.0481 -0.11112,0.0445 -0.0986,-0.004 -0.1187,-0.0241 -0.0512,-0.0511 z m -12.667615,-0.2385 c 0.0017,-0.1397 0.0207,-0.1866 0.04217,-0.10422 0.02147,0.0824 0.02005,0.19668 -0.0031,0.254 -0.02319,0.0573 -0.04076,-0.0101 -0.03903,-0.14978 z m 13.090955,0.15383 c 0.0611,-0.0245 0.13414,-0.0215 0.16228,0.007 0.0281,0.0281 -0.0219,0.0481 -0.11113,0.0445 -0.0986,-0.004 -0.11869,-0.0241 -0.0512,-0.0511 z m 0.42333,-0.0847 c 0.0611,-0.0245 0.13415,-0.0215 0.16228,0.007 0.0281,0.0281 -0.0219,0.0481 -0.11113,0.0445 -0.0986,-0.004 -0.11869,-0.0241 -0.0511,-0.0512 z M 87.578297,117.6525 c 0.0041,-0.0986 0.02412,-0.11869 0.05115,-0.0511 0.02446,0.0611 0.02145,0.13414 -0.0067,0.16228 -0.02813,0.0281 -0.04815,-0.0219 -0.04447,-0.11113 z m 19.043313,-1.59124 c 0,-0.0176 0.0667,-0.0843 0.14817,-0.14817 0.13429,-0.10531 0.13728,-0.10232 0.032,0.032 -0.11061,0.14103 -0.18014,0.18588 -0.18014,0.1162 z m -54.705466,-0.20087 c -0.105314,-0.13428 -0.102319,-0.13728 0.03197,-0.032 0.08149,0.0639 0.148166,0.13058 0.148166,0.14816 0,0.0697 -0.06953,0.0248 -0.180133,-0.1162 z m 33.369468,0.1162 c 0,-0.0176 0.06668,-0.0842 0.148167,-0.14816 0.134287,-0.10532 0.137281,-0.10232 0.03197,0.032 -0.110606,0.14104 -0.180134,0.18589 -0.180134,0.1162 z M 55.758111,115.6074 c 0.267758,-0.0168 0.705908,-0.0168 0.973667,0 0.267758,0.0168 0.04868,0.0305 -0.486834,0.0305 -0.535516,0 -0.754591,-0.0137 -0.486833,-0.0305 z m 45.339989,0.003 c 0.10532,-0.0202 0.25772,-0.0195 0.33867,0.002 0.081,0.0212 -0.005,0.0378 -0.19149,0.0368 -0.18627,-9.4e-4 -0.2525,-0.0183 -0.14718,-0.0385 z m 2.24268,0.002 c 0.0815,-0.0213 0.21484,-0.0213 0.29633,0 0.0815,0.0213 0.0148,0.0387 -0.14816,0.0387 -0.16299,0 -0.22966,-0.0174 -0.14817,-0.0387 z m -3.00567,-0.0824 c 0.0582,-0.0235 0.15346,-0.0235 0.21167,0 0.0582,0.0235 0.0106,0.0427 -0.10583,0.0427 -0.11642,0 -0.16405,-0.0192 -0.10584,-0.0427 z m 3.8153,-0.002 c 0.0611,-0.0245 0.13414,-0.0215 0.16227,0.007 0.0281,0.0281 -0.0219,0.0481 -0.11112,0.0445 -0.0986,-0.004 -0.1187,-0.0241 -0.0512,-0.0512 z m -4.402672,-0.0847 c 0.06112,-0.0245 0.134144,-0.0215 0.162278,0.007 0.02813,0.0281 -0.02187,0.0481 -0.111125,0.0445 -0.09863,-0.004 -0.118694,-0.0241 -0.05115,-0.0511 z m 4.826002,0 c 0.0611,-0.0245 0.13414,-0.0215 0.16228,0.007 0.0281,0.0281 -0.0219,0.0481 -0.11113,0.0445 -0.0986,-0.004 -0.11869,-0.0241 -0.0511,-0.0511 z m -5.249335,-0.0847 c 0.06112,-0.0245 0.134144,-0.0215 0.162278,0.007 0.02813,0.0281 -0.02187,0.0481 -0.111125,0.0445 -0.09863,-0.004 -0.118694,-0.0241 -0.05115,-0.0512 z m -0.762,-0.16933 c 0.06112,-0.0245 0.134144,-0.0215 0.162278,0.007 0.02813,0.0281 -0.02187,0.0482 -0.111125,0.0445 -0.09863,-0.004 -0.118694,-0.0241 -0.05115,-0.0512 z m -25.642684,-0.34433 -0.291776,-0.3175 0.3175,0.29178 c 0.174625,0.16048 0.3175,0.30335 0.3175,0.3175 0,0.0647 -0.07165,0.004 -0.343224,-0.29178 z m -21.71777,-0.97366 -0.248674,-0.27517 0.275167,0.24867 c 0.151342,0.13677 0.275167,0.2606 0.275167,0.27517 0,0.0654 -0.06986,0.008 -0.30166,-0.24867 z m 56.784149,0.0797 c -0.007,-0.16624 -0.0417,-0.21869 -0.11565,-0.17425 -0.061,0.0367 -0.0521,-0.003 0.0212,-0.0936 0.1224,-0.15152 0.12799,-0.15054 0.15419,0.0271 0.0149,0.10136 0.01,0.25052 -0.0113,0.33147 -0.0229,0.0874 -0.0425,0.0506 -0.0484,-0.0907 z m -10.910654,-0.11915 c 0.128059,-0.0194 0.337609,-0.0194 0.465667,0 0.128058,0.0194 0.02328,0.0353 -0.232833,0.0353 -0.256117,0 -0.360892,-0.0159 -0.232834,-0.0353 z M 61.474628,113.5766 c 0.152175,-0.0188 0.380775,-0.0185 0.508,8.7e-4 0.127224,0.0193 0.0027,0.0347 -0.276683,0.0343 -0.2794,-5.1e-4 -0.383493,-0.0163 -0.231317,-0.0351 z m 38.373652,-0.56327 c 0,-0.0176 0.06668,-0.0843 0.148167,-0.14817 0.134283,-0.10531 0.137283,-0.10232 0.03196,0.032 -0.110627,0.14103 -0.180154,0.18588 -0.180154,0.1162 z m -5.384378,-0.2432 -0.161289,-0.1905 0.1905,0.16129 c 0.179023,0.15157 0.229044,0.21971 0.161289,0.21971 -0.01607,0 -0.101791,-0.0857 -0.1905,-0.1905 z m -30.090957,-0.0955 c 0,-0.0176 0.06668,-0.0842 0.148166,-0.14816 0.134287,-0.10532 0.137281,-0.10232 0.03197,0.032 -0.110606,0.14104 -0.180133,0.18589 -0.180133,0.1162 z m -5.723045,-0.32786 -0.161289,-0.1905 0.1905,0.16129 c 0.179023,0.15157 0.229044,0.21971 0.161289,0.21971 -0.01607,0 -0.101791,-0.0857 -0.1905,-0.1905 z m 35.390669,0 -0.161289,-0.1905 0.1905,0.16129 c 0.104775,0.0887 0.1905,0.17443 0.1905,0.1905 0,0.0678 -0.06814,0.0177 -0.219711,-0.16129 z m 6.485041,-0.0108 c 0,-0.0176 0.0667,-0.0843 0.14817,-0.14817 0.13429,-0.10531 0.13728,-0.10232 0.032,0.032 -0.11061,0.14103 -0.18014,0.18588 -0.18014,0.1162 z m -25.24654,-1.21121 c 0.06112,-0.0245 0.134144,-0.0215 0.162278,0.007 0.02813,0.0281 -0.02187,0.0482 -0.111125,0.0445 -0.09863,-0.004 -0.118694,-0.0241 -0.05115,-0.0511 z m 1.434042,-0.0829 c 0.05821,-0.0235 0.153458,-0.0235 0.211667,0 0.05821,0.0235 0.01058,0.0427 -0.105834,0.0427 -0.116416,0 -0.164041,-0.0192 -0.105833,-0.0427 z m 5.423959,-0.002 c 0.06112,-0.0245 0.134144,-0.0215 0.162278,0.007 0.02813,0.0281 -0.02187,0.0481 -0.111125,0.0445 -0.09863,-0.004 -0.118694,-0.0241 -0.05115,-0.0511 z m -2.799292,-0.42525 c 0.104775,-0.0202 0.276225,-0.0202 0.381,0 0.104775,0.0202 0.01905,0.0367 -0.1905,0.0367 -0.20955,0 -0.295275,-0.0165 -0.1905,-0.0367 z m 13.743852,-0.24364 c 0.0041,-0.0986 0.02412,-0.11869 0.05115,-0.0512 0.02446,0.0611 0.02145,0.13414 -0.0067,0.16228 -0.02813,0.0281 -0.04815,-0.0219 -0.04447,-0.11113 z m 8.487079,-0.79728 c 0,-0.30268 0.0154,-0.42651 0.0342,-0.27516 0.0188,0.15134 0.0188,0.39899 0,0.55033 -0.0188,0.15134 -0.0342,0.0275 -0.0342,-0.27517 z m -8.555371,0 c 0,-0.20955 0.01651,-0.29527 0.03669,-0.1905 0.02018,0.10478 0.02018,0.27623 0,0.381 -0.02018,0.10478 -0.03669,0.0191 -0.03669,-0.1905 z m 0.06829,-0.81139 c 0.0041,-0.0986 0.02412,-0.11869 0.05115,-0.0511 0.02446,0.0611 0.02145,0.13415 -0.0067,0.16228 -0.02813,0.0281 -0.04815,-0.0219 -0.04447,-0.11113 z m 7.517851,-1.87677 c -0.10531,-0.13429 -0.10232,-0.13728 0.032,-0.032 0.14103,0.11061 0.18588,0.18013 0.1162,0.18013 -0.0176,0 -0.0843,-0.0667 -0.14817,-0.14816 z m -6.550869,-0.10584 c 0.08428,-0.0931 0.172295,-0.16933 0.195578,-0.16933 0.02328,0 -0.02663,0.0762 -0.110911,0.16933 -0.08428,0.0931 -0.172295,0.16934 -0.195579,0.16934 -0.02328,0 0.02663,-0.0762 0.110912,-0.16934 z m -35.433,-0.46539 c 0.15797,-0.16299 0.306268,-0.29634 0.329551,-0.29634 0.02328,0 -0.08692,0.13335 -0.244884,0.29634 -0.15797,0.16298 -0.306268,0.29633 -0.329551,0.29633 -0.02328,0 0.08691,-0.13335 0.244884,-0.29633 z m 35.856335,0.0423 c 0.08428,-0.0931 0.172295,-0.16933 0.195579,-0.16933 0.02328,0 -0.02663,0.0762 -0.110912,0.16933 -0.08428,0.0931 -0.172295,0.16933 -0.195578,0.16933 -0.02328,0 0.02663,-0.0762 0.110911,-0.16933 z m 5.4502,-0.14817 c -0.105314,-0.13428 -0.102319,-0.13728 0.03197,-0.032 0.141034,0.1106 0.185884,0.18013 0.116194,0.18013 -0.0176,0 -0.08425,-0.0667 -0.148161,-0.14817 z m -2.8467,-0.92847 c 0.128059,-0.0194 0.337609,-0.0194 0.465667,0 0.128058,0.0194 0.02328,0.0353 -0.232833,0.0353 -0.256117,0 -0.360892,-0.0159 -0.232834,-0.0353 z m -35.851043,-0.2512 c 0.06112,-0.0245 0.134143,-0.0215 0.162278,0.007 0.02813,0.0281 -0.02187,0.0481 -0.111125,0.0445 -0.09863,-0.004 -0.118694,-0.0241 -0.05115,-0.0512 z m 0.846667,0 c 0.06112,-0.0245 0.134143,-0.0215 0.162278,0.007 0.02813,0.0281 -0.02187,0.0481 -0.111125,0.0445 -0.09863,-0.004 -0.118695,-0.0241 -0.05115,-0.0512 z m 14.324542,-1.93183 c 0.109368,-0.11641 0.217901,-0.21166 0.241184,-0.21166 0.02328,0 -0.04715,0.0952 -0.156517,0.21166 -0.109368,0.11642 -0.217901,0.21167 -0.241184,0.21167 -0.02328,0 0.04715,-0.0952 0.156517,-0.21167 z"
         id="path1233" />
      <path
         style="fill:#65c2d0;stroke-width:0.0846667"
         d="m 87.063613,127.0761 c -0.845128,-0.25969 -1.634507,-0.65902 -2.236138,-1.13122 l -0.493203,-0.3871 0.327504,-0.14876 c 0.955367,-0.43398 1.918563,-1.43891 2.413396,-2.51796 0.533641,-1.16369 0.623973,-1.68089 0.617941,-3.5381 -0.005,-1.54742 -0.02445,-1.7636 -0.225405,-2.50877 -0.1808,-0.67043 -0.421297,-1.34407 -0.709408,-1.98705 -0.05564,-0.12416 0.834896,-0.6941 1.829313,-1.17076 0.680131,-0.32601 1.020052,-0.4257 2.201333,-0.64557 0.878361,-0.16349 1.507014,-0.24007 1.693334,-0.20626 0.364947,0.0662 2.22042,0.82132 3.640666,1.48159 2.031176,0.94429 3.897724,1.34924 6.233074,1.35227 2.36436,0.003 3.96872,-0.51325 5.34229,-1.71926 l 0.27797,-0.24406 -8.5e-4,0.28394 c -0.002,0.68909 -0.74033,1.68341 -1.71116,2.30444 -0.87059,0.55691 -2.56615,1.39517 -3.34167,1.65208 -0.4279,0.14174 -1.5328,0.41426 -2.45534,0.60559 -2.630707,0.5456 -3.691653,0.97073 -5.063158,2.02884 -1.251498,0.96552 -3.354961,3.47714 -4.02226,4.80273 -0.630234,1.25196 -1.472934,1.77133 -3.005916,1.8526 -0.540061,0.0286 -0.806025,-0.004 -1.312333,-0.15921 z m 8.974667,-13.45685 c -1.454534,-0.50998 -2.465499,-1.57688 -2.833693,-2.99047 -0.581558,-2.23275 0.754377,-4.5044 3.036425,-5.1632 0.680224,-0.19638 1.853253,-0.13847 2.535402,0.12517 1.178011,0.45526 2.196236,1.48776 2.559256,2.59511 0.22735,0.69354 0.22735,2.08266 0,2.7762 -0.36285,1.10685 -1.379315,2.1379 -2.559256,2.59599 -0.74951,0.29098 -2.002867,0.319 -2.738134,0.0612 z m -31.411335,-1.19859 c 0,-0.0176 0.06667,-0.0842 0.148166,-0.14816 0.134287,-0.10532 0.137281,-0.10232 0.03197,0.032 -0.110606,0.14104 -0.180133,0.18589 -0.180133,0.1162 z"
         id="path1231" />
      <path
         style="fill:#9e9e9d;stroke-width:0.0846667"
         d="m 78.917284,127.71478 c 0.246036,-0.0172 0.627036,-0.017 0.846666,4.2e-4 0.219631,0.0174 0.01833,0.0314 -0.447338,0.0312 -0.465667,-2.6e-4 -0.645365,-0.0144 -0.399328,-0.0316 z m 3.510828,8.4e-4 c 0.174625,-0.0183 0.460375,-0.0183 0.635,0 0.174625,0.0183 0.03175,0.0332 -0.3175,0.0332 -0.34925,0 -0.492125,-0.0149 -0.3175,-0.0332 z m -6.518169,-0.0837 c 0.128698,-0.0195 0.319198,-0.0189 0.423333,0.001 0.104135,0.0201 -0.0012,0.036 -0.233997,0.0354 -0.232834,-6.8e-4 -0.318035,-0.0171 -0.189336,-0.0365 z m 8.888836,0.002 c 0.08149,-0.0213 0.214842,-0.0213 0.296333,0 0.08149,0.0213 0.01482,0.0387 -0.148166,0.0387 -0.162984,0 -0.229659,-0.0174 -0.148167,-0.0387 z m -11.133667,-0.0861 c 0.104775,-0.0202 0.276225,-0.0202 0.381,0 0.104775,0.0202 0.01905,0.0367 -0.1905,0.0367 -0.20955,0 -0.295275,-0.0165 -0.1905,-0.0367 z m 12.361334,0.004 c 0.05821,-0.0235 0.153458,-0.0235 0.211667,0 0.05821,0.0235 0.01058,0.0427 -0.105834,0.0427 -0.116416,0 -0.164041,-0.0192 -0.105833,-0.0427 z m 0.851958,-0.0864 c 0.06112,-0.0245 0.134144,-0.0215 0.162278,0.007 0.02813,0.0281 -0.02187,0.0482 -0.111125,0.0445 -0.09863,-0.004 -0.118694,-0.0241 -0.05115,-0.0512 z m -2.743836,-2.08001 -0.161289,-0.1905 0.1905,0.16129 c 0.179023,0.15157 0.229044,0.21971 0.161289,0.21971 -0.01607,0 -0.101791,-0.0857 -0.1905,-0.1905 z m -8.310271,-3.15383 c 9.39e-4,-0.18627 0.01828,-0.2525 0.03853,-0.14718 0.02025,0.10532 0.01948,0.25772 -0.0017,0.33867 -0.02119,0.081 -0.03776,-0.005 -0.03682,-0.19149 z m 6.948415,-0.55033 c 0,-0.30269 0.01537,-0.42651 0.03415,-0.27517 0.01878,0.15134 0.01878,0.39899 0,0.55033 -0.01878,0.15134 -0.03415,0.0275 -0.03415,-0.27516 z m 2.301234,-5.50334 c 0.08428,-0.0931 0.172295,-0.16933 0.195578,-0.16933 0.02328,0 -0.02663,0.0762 -0.110912,0.16933 -0.08428,0.0931 -0.172295,0.16934 -0.195578,0.16934 -0.02328,0 0.02663,-0.0762 0.110912,-0.16934 z m 0.635,-0.635 c 0.109368,-0.11641 0.217901,-0.21166 0.241184,-0.21166 0.02328,0 -0.04715,0.0953 -0.156517,0.21166 -0.109369,0.11642 -0.217901,0.21167 -0.241185,0.21167 -0.02328,0 0.04715,-0.0953 0.156518,-0.21167 z m -13.647209,-4.0795 c 0.06112,-0.0245 0.134143,-0.0215 0.162278,0.007 0.02813,0.0281 -0.02187,0.0481 -0.111125,0.0445 -0.09863,-0.004 -0.118694,-0.0241 -0.05115,-0.0512 z m 0.677333,-0.0847 c 0.06112,-0.0245 0.134144,-0.0215 0.162278,0.007 0.02813,0.0281 -0.02187,0.0482 -0.111125,0.0445 -0.09863,-0.004 -0.118694,-0.0241 -0.05115,-0.0512 z m 12.530667,-0.0847 c 0.06112,-0.0245 0.134145,-0.0215 0.162279,0.007 0.02813,0.0281 -0.02187,0.0481 -0.111125,0.0445 -0.09863,-0.004 -0.118695,-0.0241 -0.05115,-0.0512 z m -10.842625,-0.0829 c 0.05821,-0.0235 0.153458,-0.0235 0.211667,0 0.05821,0.0235 0.01058,0.0427 -0.105834,0.0427 -0.116416,0 -0.164041,-0.0192 -0.105833,-0.0427 z m 9.995959,-0.002 c 0.06112,-0.0245 0.134144,-0.0215 0.162278,0.007 0.02813,0.0281 -0.02187,0.0482 -0.111125,0.0445 -0.09863,-0.004 -0.118694,-0.0241 -0.05115,-0.0511 z m -8.895292,-0.0829 c 0.05821,-0.0235 0.153458,-0.0235 0.211666,0 0.05821,0.0235 0.01058,0.0427 -0.105833,0.0427 -0.116417,0 -0.164042,-0.0192 -0.105833,-0.0427 z m 7.748611,-0.003 c 0.08238,-0.0215 0.196678,-0.0201 0.254,0.003 0.05732,0.0232 -0.01008,0.0408 -0.149778,0.039 -0.1397,-0.002 -0.1866,-0.0207 -0.104222,-0.0422 z m -6.138957,-0.0859 c 0.105317,-0.0202 0.257717,-0.0195 0.338666,0.002 0.08095,0.0212 -0.0052,0.0378 -0.191487,0.0368 -0.186267,-9.4e-4 -0.252497,-0.0183 -0.147179,-0.0385 z m 4.401679,1.7e-4 c 0.104775,-0.0202 0.276225,-0.0202 0.381,0 0.104775,0.0202 0.01905,0.0367 -0.1905,0.0367 -0.20955,0 -0.295275,-0.0165 -0.1905,-0.0367 z m 1.2065,-1.66559 c 0,-0.0176 0.06668,-0.0842 0.148167,-0.14816 0.134286,-0.10532 0.137281,-0.10232 0.03197,0.032 -0.110606,0.14104 -0.180134,0.18589 -0.180134,0.1162 z m 1.126903,-3.14303 c 5.08e-4,-0.2794 0.01628,-0.38349 0.03512,-0.23132 0.01884,0.15218 0.01845,0.38078 -8.64e-4,0.508 -0.01932,0.12723 -0.03474,0.003 -0.03426,-0.27668 z"
         id="path1229" />
      <path
         style="fill:#5ca0cd;stroke-width:0.0846667"
         d="m 72.185056,127.46462 c 0.08238,-0.0215 0.196678,-0.02 0.254,0.003 0.05732,0.0232 -0.01008,0.0408 -0.149778,0.039 -0.1397,-0.002 -0.1866,-0.0207 -0.104222,-0.0422 z m -4.727104,-1.90982 -0.248674,-0.27517 0.275167,0.24867 c 0.151342,0.13677 0.275167,0.2606 0.275167,0.27517 0,0.0654 -0.06986,0.008 -0.30166,-0.24867 z m -2.757141,-3.25967 c -0.105314,-0.13429 -0.102319,-0.13728 0.03197,-0.032 0.08149,0.0639 0.148167,0.13059 0.148167,0.14817 0,0.0697 -0.06953,0.0248 -0.180134,-0.1162 z m -1.055577,-1.05833 -0.161289,-0.1905 0.1905,0.16129 c 0.179022,0.15157 0.229043,0.21971 0.161289,0.21971 -0.01607,0 -0.101792,-0.0857 -0.1905,-0.1905 z m 7.338395,-1.29823 c 0.0041,-0.0986 0.02413,-0.11869 0.05115,-0.0511 0.02446,0.0611 0.02145,0.13414 -0.0067,0.16228 -0.02814,0.0281 -0.04815,-0.0219 -0.04447,-0.11113 z m 0,-1.86266 c 0.0041,-0.0986 0.02413,-0.1187 0.05115,-0.0512 0.02446,0.0611 0.02145,0.13415 -0.0067,0.16228 -0.02814,0.0281 -0.04815,-0.0219 -0.04447,-0.11112 z m -13.10724,-2.37995 c 0.08238,-0.0215 0.196678,-0.0201 0.254,0.003 0.05732,0.0232 -0.01008,0.0408 -0.149778,0.039 -0.1397,-0.002 -0.1866,-0.0207 -0.104222,-0.0422 z m -6.420438,-0.30116 -0.248674,-0.27517 0.275167,0.24867 c 0.151342,0.13677 0.275167,0.2606 0.275167,0.27517 0,0.0654 -0.06986,0.008 -0.30166,-0.24867 z m 3.587785,0.21733 c 0.06112,-0.0245 0.134144,-0.0214 0.162278,0.007 0.02813,0.0281 -0.02187,0.0481 -0.111125,0.0445 -0.09863,-0.004 -0.118695,-0.0241 -0.05115,-0.0512 z m 2.39991,-5.9535 c 0,-0.11642 0.01922,-0.16404 0.0427,-0.10583 0.02349,0.0582 0.02349,0.15345 0,0.21166 -0.02349,0.0582 -0.0427,0.0106 -0.0427,-0.10583 z m -0.0067,-0.72672 c 0.0041,-0.0986 0.02412,-0.1187 0.05115,-0.0512 0.02446,0.0611 0.02145,0.13415 -0.0067,0.16228 -0.02813,0.0281 -0.04815,-0.0219 -0.04447,-0.11112 z m 7.224272,-2.68111 -0.161289,-0.1905 0.1905,0.16129 c 0.179022,0.15157 0.229043,0.21971 0.161289,0.21971 -0.01607,0 -0.101791,-0.0857 -0.1905,-0.1905 z m -3.013498,-1.22201 c 0.06112,-0.0245 0.134144,-0.0215 0.162278,0.007 0.02813,0.0281 -0.02187,0.0481 -0.111125,0.0445 -0.09863,-0.004 -0.118694,-0.0241 -0.05115,-0.0512 z"
         id="path1227" />
      <path
         style="fill:#0c70b5;stroke-width:0.0846667"
         d="m 70.722945,127.27481 c -1.82974,-0.38623 -2.741648,-1.04782 -4.59292,-3.3322 -2.225266,-2.74586 -3.598483,-3.89949 -6.117414,-5.13922 -0.822041,-0.40458 -1.16955,-0.52593 -1.820333,-0.63564 -1.152279,-0.19425 -2.216187,-0.4769 -3.792346,-1.00753 -1.1286,-0.37995 -1.459511,-0.52953 -1.820333,-0.8228 -0.7789,-0.63309 -1.507572,-1.37781 -1.686737,-1.72388 -0.164424,-0.3176 -0.235941,-0.91911 -0.122739,-1.03231 0.02838,-0.0284 0.291947,0.17322 0.585699,0.44801 0.619274,0.5793 1.416626,1.02029 2.433789,1.34603 0.650013,0.20817 0.891753,0.23636 2.497667,0.29131 1.705051,0.0584 1.844,0.0507 3.38664,-0.18717 1.895902,-0.29231 3.332253,-0.63923 4.052907,-0.9789 0.285516,-0.13458 0.950629,-0.56889 1.47803,-0.96514 1.269212,-0.9536 1.62834,-1.1326 2.034929,-1.01425 0.169489,0.0493 0.756985,0.16893 1.305547,0.26577 1.343118,0.23711 2.505347,0.63945 3.259077,1.12821 l 0.615796,0.39932 -0.261925,0.44494 c -0.402843,0.68432 -0.751541,1.48166 -0.953629,2.1806 -0.156101,0.5399 -0.183689,0.85057 -0.184198,2.07434 -5.93e-4,1.41944 0.0039,1.45441 0.321074,2.53052 0.422883,1.43453 0.7186,2.06649 1.215805,2.59822 0.539238,0.57669 1.029383,0.90652 1.82514,1.22819 l 0.653861,0.26431 -0.302525,0.35343 c -0.166388,0.19439 -0.422525,0.41404 -0.569193,0.48812 -0.146668,0.0741 -0.342869,0.19995 -0.436002,0.27973 -0.09313,0.0798 -0.325056,0.18928 -0.515383,0.24336 -0.190327,0.0541 -0.415307,0.17485 -0.499956,0.26838 -0.198766,0.21964 -0.967953,0.22205 -1.990328,0.006 z M 60.665036,113.4215 c -1.923368,-0.5177 -3.161483,-2.1215 -3.166338,-4.10154 -0.0059,-2.40313 1.832376,-4.23333 4.252001,-4.23333 1.789433,0 3.361781,1.12057 3.989448,2.84317 0.267748,0.73481 0.263068,2.08105 -0.0097,2.78716 -0.814374,2.10825 -2.981658,3.26542 -5.065424,2.70454 z"
         id="path1225" />
      <path
         style="fill:#5e6060;stroke-width:0.0846667"
         d="m 80.607779,127.71461 c 0.291042,-0.0165 0.767292,-0.0165 1.058333,0 0.291042,0.0165 0.05292,0.0301 -0.529166,0.0301 -0.582084,0 -0.820209,-0.0135 -0.529167,-0.0301 z m -3.979334,-0.0817 c 0.104775,-0.0202 0.276225,-0.0202 0.381,0 0.104775,0.0202 0.01905,0.0367 -0.1905,0.0367 -0.20955,0 -0.295275,-0.0165 -0.1905,-0.0367 z m 7.789334,0.004 c 0.05821,-0.0235 0.153458,-0.0235 0.211667,0 0.05821,0.0235 0.01058,0.0427 -0.105834,0.0427 -0.116416,0 -0.164041,-0.0192 -0.105833,-0.0427 z m -10.074347,-0.0885 c 0.105318,-0.0203 0.257718,-0.0195 0.338667,0.002 0.08095,0.0212 -0.0052,0.0378 -0.191487,0.0368 -0.186267,-9.4e-4 -0.252497,-0.0183 -0.14718,-0.0385 z m 11.434306,0.002 c 0.06112,-0.0245 0.134144,-0.0215 0.162278,0.007 0.02813,0.0281 -0.02187,0.0482 -0.111125,0.0445 -0.09863,-0.004 -0.118695,-0.0241 -0.05115,-0.0512 z m -1.264926,-1.78367 c -0.105314,-0.13428 -0.102319,-0.13728 0.03197,-0.032 0.141034,0.1106 0.185884,0.18013 0.1162,0.18013 -0.01758,0 -0.08426,-0.0667 -0.148167,-0.14817 z m -8.693361,-3.02683 c 0.0017,-0.1397 0.0207,-0.1866 0.04217,-0.10422 0.02147,0.0824 0.02005,0.19668 -0.0031,0.254 -0.02319,0.0573 -0.04076,-0.0101 -0.03903,-0.14978 z m 6.932846,-0.43039 c 0.0041,-0.0986 0.02412,-0.11869 0.05115,-0.0512 0.02446,0.0611 0.02145,0.13414 -0.0067,0.16228 -0.02813,0.0281 -0.04814,-0.0219 -0.04447,-0.11113 z m -6.932846,-0.58561 c 0.0017,-0.1397 0.0207,-0.1866 0.04217,-0.10422 0.02147,0.0824 0.02005,0.19668 -0.0031,0.254 -0.02319,0.0573 -0.04076,-0.0101 -0.03903,-0.14978 z m 6.932846,-0.68439 c 0.0041,-0.0986 0.02412,-0.11869 0.05115,-0.0512 0.02446,0.0611 0.02145,0.13414 -0.0067,0.16228 -0.02813,0.0281 -0.04814,-0.0219 -0.04447,-0.11113 z m -13.399894,-8.13645 c 0.06112,-0.0245 0.134144,-0.0215 0.162278,0.007 0.02813,0.0281 -0.02187,0.0482 -0.111125,0.0445 -0.09863,-0.004 -0.118694,-0.0241 -0.05115,-0.0512 z m -0.423333,-0.0847 c 0.06112,-0.0245 0.134143,-0.0215 0.162278,0.007 0.02813,0.0281 -0.02187,0.0481 -0.111125,0.0445 -0.09863,-0.004 -0.118694,-0.0241 -0.05115,-0.0512 z m -0.508,-0.0847 c 0.06112,-0.0245 0.134143,-0.0214 0.162278,0.007 0.02813,0.0281 -0.02187,0.0481 -0.111125,0.0445 -0.09863,-0.004 -0.118694,-0.0241 -0.05115,-0.0512 z m -0.508,-0.0847 c 0.06112,-0.0245 0.134143,-0.0215 0.162278,0.007 0.02813,0.0281 -0.02187,0.0482 -0.111125,0.0445 -0.09863,-0.004 -0.118694,-0.0241 -0.05115,-0.0511 z m 17.949334,-1.27 c 0.06112,-0.0245 0.134144,-0.0215 0.162278,0.007 0.02813,0.0281 -0.02187,0.0482 -0.111125,0.0445 -0.09863,-0.004 -0.118694,-0.0241 -0.05115,-0.0512 z m -12.107334,-0.0847 c 0.06112,-0.0245 0.134144,-0.0215 0.162278,0.007 0.02813,0.0281 -0.02187,0.0481 -0.111125,0.0445 -0.09863,-0.004 -0.118694,-0.0241 -0.05115,-0.0512 z m 1.016,-0.0847 c 0.06112,-0.0245 0.134144,-0.0215 0.162278,0.007 0.02813,0.0281 -0.02187,0.0481 -0.111125,0.0445 -0.09863,-0.004 -0.118694,-0.0241 -0.05115,-0.0511 z m 9.308042,0.002 c 0.05821,-0.0235 0.153459,-0.0235 0.211667,0 0.05821,0.0235 0.01058,0.0427 -0.105833,0.0427 -0.116417,0 -0.164042,-0.0192 -0.105834,-0.0427 z m -8.168722,-0.0873 c 0.08238,-0.0215 0.196678,-0.02 0.254,0.003 0.05732,0.0232 -0.01008,0.0408 -0.149778,0.039 -0.1397,-0.002 -0.1866,-0.0207 -0.104222,-0.0422 z m 6.983389,0.003 c 0.05821,-0.0235 0.153458,-0.0235 0.211667,0 0.05821,0.0235 0.01058,0.0427 -0.105834,0.0427 -0.116416,0 -0.164041,-0.0192 -0.105833,-0.0427 z m -5.078484,-0.0899 c 0.152176,-0.0188 0.380776,-0.0185 0.508,8.6e-4 0.127225,0.0193 0.0027,0.0347 -0.276683,0.0343 -0.2794,-5e-4 -0.383493,-0.0163 -0.231317,-0.0351 z m 2.919484,6.8e-4 c 0.128058,-0.0194 0.337608,-0.0194 0.465667,0 0.128058,0.0194 0.02328,0.0353 -0.232834,0.0353 -0.256116,0 -0.360891,-0.0159 -0.232833,-0.0353 z m -5.582931,-4.80765 c 5.08e-4,-0.2794 0.01628,-0.38349 0.03512,-0.23132 0.01884,0.15218 0.01846,0.38078 -8.63e-4,0.508 -0.01932,0.12723 -0.03474,0.003 -0.03426,-0.27668 z m 7.419873,-3.06917 -0.291775,-0.3175 0.3175,0.29178 c 0.295522,0.27158 0.356429,0.34322 0.291775,0.34322 -0.01415,0 -0.157023,-0.14287 -0.3175,-0.3175 z"
         id="path1223" />
      <path
         style="fill:#2a2928;stroke-width:0.0846667"
         d="m 74.913945,127.58911 c -1.2573,-0.0464 -2.301641,-0.099 -2.320759,-0.11689 -0.08923,-0.0836 0.309309,-0.38252 0.619704,-0.46485 0.190514,-0.0505 0.422589,-0.16022 0.515722,-0.24374 0.09313,-0.0835 0.288795,-0.21219 0.434806,-0.28592 0.3688,-0.18625 0.94888,-0.86186 1.174055,-1.36741 0.375407,-0.84285 0.496078,-1.53005 0.498052,-2.83634 0.0045,-2.9442 -1.103315,-5.76675 -2.952762,-7.52355 -1.146313,-1.08888 -2.502598,-1.70549 -4.481432,-2.03739 -0.601672,-0.10091 -1.149153,-0.21437 -1.216626,-0.25213 -0.1448,-0.081 2.474848,-0.60588 4.27254,-0.85601 5.6656,-0.78828 11.645618,-0.72611 17.130368,0.1781 1.64878,0.27181 2.510885,0.48288 3.016387,0.73849 l 0.46538,0.23532 -1.338717,0.23738 c -1.057408,0.18749 -1.486435,0.30605 -2.04169,0.56419 -2.832654,1.31691 -5.03003,3.78498 -5.724409,6.4296 -0.217395,0.82798 -0.262939,2.11428 -0.101923,2.87867 0.175787,0.83451 0.712332,1.90678 1.246666,2.49143 0.759227,0.83071 2.251911,1.67267 3.318087,1.87159 0.176796,0.033 0.30388,0.0775 0.282409,0.099 -0.02147,0.0215 -0.528073,0.0962 -1.125781,0.16605 -1.369776,0.1601 -8.357294,0.21662 -11.670077,0.0944 z m 3.561628,-17.13477 c -0.819124,-0.19812 -1.729286,-0.68372 -2.216099,-1.18234 -0.640536,-0.65608 -0.979443,-1.60212 -1.02923,-2.87304 -0.04011,-1.02399 0.09883,-1.62666 0.554138,-2.40359 0.89485,-1.52694 2.829957,-2.38097 4.561555,-2.01317 0.872358,0.18529 1.492959,0.51078 2.142835,1.12384 0.908231,0.85678 1.357507,1.8907 1.357507,3.12404 0,0.67975 -0.341897,2.13093 -0.601379,2.55253 -0.282267,0.45863 -0.834823,0.88535 -1.63413,1.26198 -1.151925,0.54278 -2.082427,0.66439 -3.135197,0.40975 z"
         id="path1221" />
    </g>
  </g>
</svg>
